<svg width="303" height="218" viewBox="0 0 303 218" fill="none" xmlns="http://www.w3.org/2000/svg">
<path d="M73.6406 198.825C73.6406 199.861 67.5735 200.696 60.0934 200.696C52.6133 200.696 46.5461 199.861 46.5461 198.825C46.5461 197.79 52.6133 196.955 60.0934 196.955C67.5735 196.955 73.6406 197.79 73.6406 198.825Z" fill="#FDF9E7"/>
<path d="M103.977 217.449C130.492 217.449 151.987 214.476 151.987 210.81C151.987 207.144 130.492 204.171 103.977 204.171C77.4614 204.171 55.9666 207.144 55.9666 210.81C55.9666 214.476 77.4614 217.449 103.977 217.449Z" fill="#F05D48"/>
<path d="M228.209 215.177C259.768 215.177 285.352 211.641 285.352 207.278C285.352 202.916 259.768 199.379 228.209 199.379C196.65 199.379 171.067 202.916 171.067 207.278C171.067 211.641 196.65 215.177 228.209 215.177Z" fill="#F05D48"/>
<path d="M154.908 201.867C190.1 201.867 218.629 197.925 218.629 193.061C218.629 188.198 190.1 184.255 154.908 184.255C119.716 184.255 91.1878 188.198 91.1878 193.061C91.1878 197.925 119.716 201.867 154.908 201.867Z" fill="#F05D48"/>
<path d="M300.056 191.119C300.056 193.367 286.86 195.197 270.574 195.197C254.297 195.197 241.093 193.375 241.093 191.119C241.093 188.871 254.289 187.041 270.574 187.041C286.852 187.041 300.056 188.863 300.056 191.119Z" fill="#F05D48"/>
<path d="M45.5328 178.789C30.3571 175.305 16.1233 163.4 8.61926 149.496C1.12318 135.593 -1.78264 118.823 2.66391 103.651C7.10248 88.4792 19.4922 75.4265 34.8755 72.1432C53.5957 68.1455 72.4756 78.5171 86.7732 91.3049C92.6168 96.5308 98.1251 102.279 104.887 106.228C111.656 110.17 120.126 112.112 127.343 109.078C136.005 105.433 140.451 96.009 144.666 87.5801C155.044 66.821 168.663 47.3784 186.609 32.7442C204.555 18.1021 227.091 8.51721 250.194 8.59749C264.587 8.64565 279.612 12.828 289.638 23.2076C302.347 36.3646 304.566 56.899 300.775 74.8405C296.983 92.782 288.113 109.15 281.064 126.064C274.015 142.978 268.667 161.594 272.443 179.535L45.5328 178.789Z" fill="#F05D48"/>
<path d="M141.792 68.1293C146.183 60.8805 149.99 53.15 151.675 44.8415C153.878 33.9723 151.994 22.501 144.506 14.0239C133.952 2.08703 112.231 -3.57236 97.3503 2.38405C91.2193 4.84046 85.8946 9.99412 84.4896 16.4723C82.1027 27.4379 90.421 36.9264 95.578 45.6764C98.3482 50.3805 100.416 55.8553 100.615 61.3702C100.799 66.6362 97.5179 71.5009 98.3162 76.8151C98.7633 79.8013 100.551 82.4745 102.867 84.4091C107.928 88.6396 115.081 90.1809 121.427 88.5513C131.238 86.0387 136.874 76.2532 141.792 68.1293Z" fill="#F05D48"/>
<path d="M119.312 35.321H10.3835C10.1759 35.321 10.0003 35.4896 10.0003 35.7063V121.689C10.0003 121.898 10.1679 122.074 10.3835 122.074H119.312C119.52 122.074 119.695 121.906 119.695 121.689V35.7063C119.695 35.4976 119.52 35.321 119.312 35.321ZM86.2862 78.3163H76.1397V68.4024H86.2862V78.3163ZM87.0526 68.4024H97.199V78.3163H87.0526V68.4024ZM64.4686 79.087V89.0009H54.3221V79.087H64.4686ZM54.3221 78.3163V68.4024H64.4686V78.3163H54.3221ZM65.2349 79.087H75.3814V89.0009H65.2349V79.087ZM65.2349 78.3163V68.4024H75.3814V78.3163H65.2349ZM76.1397 67.6397V57.7258H86.2862V67.6397H76.1397ZM75.3814 67.6397H65.2349V57.7258H75.3814V67.6397ZM64.4686 67.6397H54.3221V57.7258H64.4686V67.6397ZM53.5557 67.6397H43.4093V57.7258H53.5557V67.6397ZM53.5557 68.4024V78.3163H43.4093V68.4024H53.5557ZM42.6509 78.3163H32.5045V68.4024H42.6509V78.3163ZM31.7381 78.3163H21.5917V68.4024H31.7381V78.3163ZM31.7381 79.087V89.0009H21.5917V79.087H31.7381ZM32.5045 79.087H42.6509V89.0009H32.5045V79.087ZM43.4093 79.087H53.5557V89.0009H43.4093V79.087ZM53.5557 89.7636V99.6775H43.4093V89.7636H53.5557ZM54.3221 89.7636H64.4686V99.6775H54.3221V89.7636ZM65.2349 89.7636H75.3814V99.6775H65.2349V89.7636ZM76.1397 89.7636H86.2862V99.6775H76.1397V89.7636ZM76.1397 88.9929V79.087H86.2862V89.0009H76.1397V88.9929ZM87.0526 79.087H97.199V89.0009H87.0526V79.087ZM97.9574 79.087H108.104V89.0009H97.9574V79.087ZM97.9574 78.3163V68.4024H108.104V78.3163H97.9574ZM97.9574 67.6397V57.7258H108.104V67.6397H97.9574ZM97.199 67.6397H87.0526V57.7258H97.199V67.6397ZM87.0526 56.9551V47.0492H97.199V56.9632H87.0526V56.9551ZM86.2862 56.9551H76.1397V47.0492H86.2862V56.9551ZM75.3814 56.9551H65.2349V47.0492H75.3814V56.9551ZM64.4686 56.9551H54.3221V47.0492H64.4686V56.9551ZM53.5557 56.9551H43.4093V47.0492H53.5557V56.9551ZM42.6509 56.9551H32.5045V47.0492H42.6509V56.9551ZM42.6509 57.7258V67.6397H32.5045V57.7258H42.6509ZM31.7381 67.6397H21.5917V57.7258H31.7381V67.6397ZM20.8253 67.6397H10.7667V57.7258H20.8253V67.6397ZM20.8253 68.4024V78.3163H10.7667V68.4024H20.8253ZM20.8253 79.087V89.0009H10.7667V79.087H20.8253ZM20.8253 89.7636V99.6775H10.7667V89.7636H20.8253ZM21.5917 89.7636H31.7381V99.6775H21.5917V89.7636ZM32.5045 89.7636H42.6509V99.6775H32.5045V89.7636ZM42.6509 100.44V110.354H32.5045V100.44H42.6509ZM43.4093 100.44H53.5557V110.354H43.4093V100.44ZM54.3221 100.44H64.4686V110.354H54.3221V100.44ZM65.2349 100.44H75.3814V110.354H65.2349V100.44ZM76.1397 100.44H86.2862V110.354H76.1397V100.44ZM87.0526 100.44H97.199V110.354H87.0526V100.44ZM87.0526 99.6775V89.7636H97.199V99.6775H87.0526ZM97.9574 89.7636H108.104V99.6775H97.9574V89.7636ZM108.87 89.7636H118.929V99.6775H108.87V89.7636ZM108.87 88.9929V79.087H118.929V89.0009H108.87V88.9929ZM108.87 78.3163V68.4024H118.929V78.3163H108.87ZM108.87 67.6397V57.7258H118.929V67.6397H108.87ZM108.87 56.9551V47.0492H118.929V56.9632H108.87V56.9551ZM108.104 56.9551H97.9574V47.0492H108.104V56.9551ZM97.9574 46.2785V36.0916H108.104V46.2785H97.9574ZM97.199 46.2785H87.0526V36.0916H97.199V46.2785ZM86.2862 46.2785H76.1397V36.0916H86.2862V46.2785ZM75.3814 46.2785H65.2349V36.0916H75.3814V46.2785ZM64.4686 46.2785H54.3221V36.0916H64.4686V46.2785ZM53.5557 46.2785H43.4093V36.0916H53.5557V46.2785ZM42.6509 46.2785H32.5045V36.0916H42.6509V46.2785ZM31.7381 46.2785H21.5917V36.0916H31.7381V46.2785ZM31.7381 47.0492V56.9632H21.5917V47.0492H31.7381ZM20.8253 56.9551H10.7667V47.0492H20.8253V56.9551ZM10.7667 100.44H20.8253V110.354H10.7667V100.44ZM21.5917 100.44H31.7381V110.354H21.5917V100.44ZM31.7381 111.125V121.312H21.5917V111.125H31.7381ZM32.5045 111.125H42.6509V121.312H32.5045V111.125ZM43.4093 111.125H53.5557V121.312H43.4093V111.125ZM54.3221 111.125H64.4686V121.312H54.3221V111.125ZM65.2349 111.125H75.3814V121.312H65.2349V111.125ZM76.1397 111.125H86.2862V121.312H76.1397V111.125ZM87.0526 111.125H97.199V121.312H87.0526V111.125ZM97.9574 111.125H108.104V121.312H97.9574V111.125ZM97.9574 110.354V100.44H108.104V110.354H97.9574ZM108.87 100.44H118.929V110.354H108.87V100.44ZM118.929 46.2785H108.87V36.0916H118.929V46.2785ZM20.8253 36.0916V46.2785H10.7667V36.0916H20.8253ZM10.7667 111.125H20.8253V121.312H10.7667V111.125ZM108.87 121.312V111.125H118.929V121.312H108.87Z" fill="#E7DFC2"/>
<path d="M54.9285 59.9094C54.9285 59.9094 57.3634 81.7683 69.4417 85.5733L91.6665 79.3038C91.6665 79.3038 78.3987 73.1628 77.0415 59.9094H54.9285Z" fill="#F7F4E3"/>
<path d="M43.4098 80.1148C43.4098 80.1148 41.5577 105 32.3612 109.327L15.4372 102.19C15.4372 102.19 25.5437 95.2065 26.5735 80.1148H43.4098Z" fill="#F7F4E3"/>
<path d="M100.562 42.5114L85.7601 46.8394L90.882 64.5524L105.684 60.2245L100.562 42.5114Z" fill="#F7F4E3"/>
<path d="M99.7922 44.2665L87.3514 47.9041L90.6591 59.3427L103.1 55.7051L99.7922 44.2665Z" fill="#8493FB"/>
<path d="M58.5005 96.2435L47.1139 93.1056L43.4025 106.723L54.7891 109.861L58.5005 96.2435Z" fill="#8493FB"/>
<path d="M57.3032 97.0779L47.7336 94.4407L45.3346 103.243L54.9043 105.88L57.3032 97.0779Z" fill="#F7F4E3"/>
<path d="M237.23 89.3698C235.609 89.3698 233.98 89.3618 232.36 89.3618C231.562 89.3618 230.795 90.0682 230.835 90.8951C230.875 91.7299 231.506 92.4283 232.36 92.4283C233.98 92.4283 235.609 92.4363 237.23 92.4363C238.028 92.4363 238.794 91.7299 238.754 90.9031C238.714 90.0763 238.084 89.3779 237.23 89.3698Z" fill="#CCC6AD"/>
<path d="M284.896 130.11C269.952 116.752 255.007 103.402 240.063 90.0446C237.868 88.0859 234.619 91.329 236.83 93.2957L281.663 133.361C283.85 135.328 287.099 132.085 284.896 130.11Z" fill="#CCC6AD"/>
<path d="M291.618 186.792H287.307C283.356 185.652 277.049 184.921 269.936 184.921C262.823 184.921 256.525 185.66 252.565 186.792H248.254C248.055 187.956 248.254 189.585 248.254 189.585C248.254 192.162 257.962 194.249 269.928 194.249C281.903 194.249 291.602 192.162 291.602 189.585C292.009 187.859 291.618 186.792 291.618 186.792Z" fill="#CCC6AD"/>
<path d="M291.619 186.792C291.619 189.369 281.919 191.464 269.953 191.464C257.978 191.464 248.279 189.369 248.279 186.792C248.279 184.224 257.986 182.128 269.953 182.128C270.823 182.128 271.677 182.137 272.515 182.161C273.29 182.185 274.048 182.209 274.798 182.249C284.434 182.714 291.619 184.585 291.619 186.792Z" fill="#E7DFC2"/>
<path d="M274.798 182.241L272.554 186.126L272.514 186.19V182.16C273.281 182.184 274.047 182.201 274.798 182.241Z" fill="#E7DFC2"/>
<path d="M281.64 131.137L268.1 184.962C267.374 187.836 271.789 189.064 272.515 186.182C277.025 168.241 281.544 150.299 286.054 132.358C286.781 129.484 282.366 128.264 281.64 131.137Z" fill="#E7DFC2"/>
<path d="M285.902 129.098C270.957 115.74 256.013 102.391 241.069 89.0328C238.874 87.0741 235.625 90.3172 237.836 92.292L282.669 132.357C284.856 134.316 288.105 131.073 285.902 129.098Z" fill="#E7DFC2"/>
<path d="M194.775 89.3622C194.775 89.3622 207.851 67.9528 224.775 78.1558C241.7 88.3588 229.086 110.041 229.086 110.041L194.775 89.3622Z" fill="#E7DFC2"/>
<path d="M229.087 110.049C228.145 111.631 222.149 109.825 214.781 105.955C213.193 105.12 211.54 104.189 209.864 103.178C208.187 102.166 206.591 101.139 205.114 100.127C198.248 95.4152 193.842 90.9519 194.784 89.3705C195.662 87.9015 200.923 89.3625 207.604 92.7019C209.632 93.7134 211.803 94.9014 214.015 96.242C216.226 97.5746 218.286 98.9313 220.138 100.264C226.189 104.599 229.957 108.572 229.087 110.049Z" fill="#C1B894"/>
<path d="M220.121 100.248C219.507 102.985 217.447 105.176 214.781 105.947C214.102 106.148 213.376 106.252 212.625 106.252C208.921 106.252 205.832 103.619 205.105 100.111C205.001 99.5974 204.945 99.0595 204.945 98.5136C204.945 96.1776 205.967 94.0985 207.596 92.6857C209.624 93.6971 211.795 94.8852 214.006 96.2258C216.21 97.5664 218.269 98.923 220.121 100.248Z" fill="#FAC978"/>
<path d="M238.538 86.9377C233.629 86.9377 233.621 94.612 238.538 94.612C243.448 94.612 243.456 86.9377 238.538 86.9377Z" fill="#E7DFC2"/>
<path d="M238.538 89.1932C236.519 89.1932 236.511 92.3561 238.538 92.3561C240.566 92.3561 240.566 89.1932 238.538 89.1932Z" fill="#E7DFC2"/>
<path d="M283.428 126.562C277.113 126.562 277.106 136.427 283.428 136.427C289.743 136.427 289.751 126.562 283.428 126.562Z" fill="#E7DFC2"/>
<path d="M283.427 129.5C280.872 129.5 280.864 133.497 283.427 133.497C285.981 133.497 285.989 129.5 283.427 129.5Z" fill="#E7DFC2"/>
<path d="M73.6253 176.341H46.5628C46.5628 176.341 45.8284 192.604 53.9471 198.368C54.6177 198.842 55.4559 199.09 56.3101 199.09H60.0941H63.878C64.7322 199.09 65.5704 198.842 66.241 198.368C74.3598 192.612 73.6253 176.341 73.6253 176.341Z" fill="#536969"/>
<path d="M73.641 176.348C73.641 176.83 69.2184 177.247 63.2631 177.352C62.2492 177.376 61.1795 177.384 60.0858 177.384C59.1518 177.384 58.2497 177.376 57.3636 177.36C51.1927 177.271 46.5466 176.846 46.5466 176.348C46.5466 175.891 50.4822 175.497 55.9187 175.361C57.2279 175.329 58.6329 175.313 60.0938 175.313C61.2433 175.313 62.361 175.321 63.4227 175.345C69.2902 175.457 73.641 175.867 73.641 176.348Z" fill="#405050"/>
<path d="M77.5052 181.109C76.0683 179.367 73.7372 179.054 71.6217 179.126C69.6659 179.19 69.6579 182.257 71.6217 182.192C73.1625 182.144 74.8149 182.184 75.6053 183.726C76.3397 185.138 76.212 186.977 75.4935 188.373C73.7771 191.745 69.8575 192.676 66.3769 192.203C65.5626 192.09 64.8521 192.989 64.8521 193.736C64.8521 194.659 65.5546 195.157 66.3769 195.269C70.1289 195.775 74.2561 194.739 76.8267 191.793C79.3653 188.879 80.0917 184.247 77.5052 181.109Z" fill="#536969"/>
<path opacity="0.5" d="M67.7257 167.173C65.674 169.244 63.4627 171.612 63.3989 174.542C63.3909 174.871 63.4148 175.2 63.4308 175.538C63.4707 176.236 63.5106 176.934 63.2791 177.544C62.2653 177.568 61.1955 177.577 60.1019 177.577C59.1679 177.577 58.2658 177.568 57.3797 177.552C56.7969 177.015 56.3019 176.308 55.9267 175.554C55.5356 174.831 55.2482 174.069 55.0726 173.386C54.7373 172.094 54.7133 170.713 55.0486 169.421C55.9188 166.041 58.9523 163.28 58.8884 159.796C58.8485 157.54 57.4914 155.533 55.9826 153.871C54.4658 152.218 52.7176 150.733 51.584 148.79C49.6441 145.483 49.8676 140.995 52.2226 137.977C54.5696 134.959 58.9523 133.682 62.4968 135.079C66.0492 136.484 68.4122 140.514 67.7895 144.294C67.3824 146.759 65.8736 149.28 66.8316 151.591C67.3585 152.852 68.508 153.711 69.474 154.682C70.8151 156.047 71.8529 157.837 71.8928 159.755C71.9567 162.677 69.7773 165.102 67.7257 167.173Z" fill="#54C1BB"/>
<path d="M87.1402 179.896C87.1402 179.896 69.9208 111.277 77.6404 102.985C85.36 94.6924 149.544 90.8553 156.577 97.2773C163.61 103.699 163.043 179.808 163.043 179.808L87.1402 179.896Z" fill="#54C1BB"/>
<path d="M156.584 97.2774C156.369 97.0847 156.097 96.892 155.778 96.7154C134.479 95.3909 96.4162 99.1076 90.5806 105.377C83.7312 112.746 96.5359 167.671 99.4897 179.88L163.043 179.808C163.043 179.808 163.617 103.699 156.584 97.2774Z" fill="#8DD1CD"/>
<path d="M176.023 122.78C176.023 122.78 189.267 162.789 192.828 163.785C196.388 164.78 232.871 171.692 232.871 171.692L231.09 180.643C231.09 180.643 186.641 182.039 176.023 174.477C165.398 166.916 176.023 122.78 176.023 122.78Z" fill="#DDBB8F"/>
<path d="M176.023 122.78C176.023 122.78 165.398 166.916 176.023 174.477C180.095 177.375 189.124 178.957 198.719 179.808L201.29 166.916L200.923 166.691L200.651 165.446C196.7 164.652 193.73 164.026 192.836 163.777C189.267 162.789 176.023 122.78 176.023 122.78Z" fill="#405050"/>
<path d="M205.066 166.33C203.35 168.152 202.192 170.416 201.545 172.784C200.899 175.152 200.739 177.616 200.859 180.057C200.875 180.322 200.603 180.611 200.332 180.675C200.061 180.739 199.773 180.683 199.494 180.643C199.214 180.603 198.911 180.587 198.671 180.731C198.432 180.876 198.296 181.157 198.041 181.261C197.714 181.389 197.362 181.205 197.035 181.084C196.324 180.819 195.534 180.876 194.776 180.819C194.017 180.771 193.187 180.571 192.748 179.977C192.429 179.551 192.381 178.997 192.341 178.475C192.157 176.051 191.998 173.482 193.139 171.307C193.866 169.926 195.063 168.794 195.686 167.373C195.989 166.683 196.141 165.936 196.556 165.302C196.963 164.668 197.737 164.154 198.504 164.323C199.142 164.467 199.59 165.037 200.212 165.214C200.779 165.366 201.37 165.174 201.953 165.11C203.182 164.973 204.284 165.399 205.066 166.33Z" fill="#536969"/>
<path d="M109.995 179.896H177.34C175.456 166.747 173.708 152.193 173.907 144.647C174.075 138.466 176.015 122.876 176.015 122.876C175.272 121.993 158.644 109.045 145.104 109.446C122.137 110.137 110.466 126.449 110.466 126.449C110.466 126.449 111.24 138.546 111.807 144.832C112.486 152.313 111.232 166.795 109.995 179.896Z" fill="#F7F4E3"/>
<path d="M173.899 146.068C173.899 145.538 173.899 145.032 173.915 144.551C174.075 138.61 175.871 124.008 176.015 122.86C175.312 122.058 163.346 112.722 151.507 110.113L151.611 121.536C151.611 121.536 156.017 148.717 157.965 179.8H177.332C175.568 167.461 173.923 153.903 173.899 146.068Z" fill="#405050"/>
<path d="M153.056 108.475L163.689 121.199L155.802 118.815L151.603 121.536L146.821 109.527L153.056 108.475Z" fill="#536969"/>
<path d="M109.995 179.808H140.841C137.68 152.001 136.65 125.63 136.65 125.63L133.186 111.245C118.114 115.692 110.466 126.361 110.466 126.361C110.466 126.361 111.24 138.458 111.807 144.744C112.486 152.225 111.232 166.699 109.995 179.808Z" fill="#405050"/>
<path d="M173.365 79.7368C178.61 76.0602 182.465 70.0717 183.87 63.4008C184.318 61.2896 184.525 59.082 184.11 56.9547C183.703 54.8274 182.609 52.7885 180.917 51.6566C179.224 50.5247 176.893 50.4685 175.353 51.8011C174.299 49.9467 172.048 49.1119 170.1 49.4651C168.152 49.8183 166.428 51.0144 164.807 52.2426C158.429 49.4249 150.741 51.0545 145.767 56.168C141.544 56.8985 137.745 60.1738 136.044 64.4685C134.344 68.7632 134.32 73.7081 135.278 78.2999C135.964 81.5751 137.21 84.8584 139.525 87.0659C142.311 89.715 146.214 90.4134 149.879 90.3572C158.421 90.2207 166.196 84.762 173.365 79.7368Z" fill="#405050"/>
<path d="M139.932 74.463C138.375 89.4985 134.496 116.11 134.496 116.11C137.88 122.13 150.645 121.368 150.35 119.353C150.182 118.213 150.454 116.23 151.116 114.448C151.627 113.067 152.378 111.799 153.336 111.125C153.735 110.844 154.445 110.755 155.363 110.747C155.515 110.755 155.595 110.747 155.595 110.747C159.818 110.779 168 112.401 171.569 107.263C176.007 100.873 176.494 83.0845 176.015 74.5111C175.736 69.6063 171.545 62.7267 163.107 61.2336C152.793 59.4034 141.497 59.3311 139.932 74.463Z" fill="#FDBCA0"/>
<path d="M141.4 106.557C141.4 106.557 144.593 111.189 151.116 114.44C151.627 113.059 152.377 111.791 153.335 111.116C153.734 110.835 154.445 110.747 155.363 110.739C154.101 110.707 147.827 110.322 141.4 106.557Z" fill="#F0A38B"/>
<path d="M165.589 91.2887C166.164 91.2806 166.762 91.2967 167.241 91.6579C167.617 91.9389 167.792 92.4045 167.76 92.8701C167.673 93.9297 166.723 94.5237 165.781 94.7485C165.477 94.8208 165.333 94.3552 165.637 94.2829C166.355 94.1143 167.162 93.721 167.273 92.9022C167.321 92.5731 167.21 92.2359 166.938 92.0352C166.563 91.7623 166.06 91.7783 165.613 91.7783C165.294 91.7864 165.278 91.2967 165.589 91.2887Z" fill="#3F4553"/>
<path d="M159.586 85.4447C159.554 86.3438 160.121 87.0904 160.855 87.1145C161.59 87.1385 162.205 86.4321 162.237 85.533C162.268 84.634 161.702 83.8874 160.967 83.8633C160.233 83.8392 159.618 84.5457 159.586 85.4447Z" fill="#3F4553"/>
<path d="M168.431 86.3033C168.399 87.2024 168.966 87.9489 169.7 87.973C170.435 87.9971 171.05 87.2907 171.081 86.3916C171.113 85.4925 170.547 84.7459 169.812 84.7219C169.086 84.6978 168.463 85.4042 168.431 86.3033Z" fill="#3F4553"/>
<path d="M157.326 77.8344C158.907 76.847 160.91 76.6543 162.635 77.417C162.874 77.5213 163.018 77.7942 162.922 78.0511C162.834 78.2919 162.539 78.4445 162.292 78.3401C160.91 77.73 159.234 77.7942 157.941 78.605C157.717 78.7415 157.438 78.7575 157.254 78.5328C157.103 78.3401 157.103 77.9789 157.326 77.8344Z" fill="#3F4553"/>
<path d="M174.163 79.4158C172.902 78.0351 171.026 77.3126 169.166 77.5775C168.902 77.6176 168.703 77.8344 168.726 78.1073C168.75 78.3642 168.99 78.589 169.253 78.5488C170.746 78.3321 172.343 78.8539 173.373 79.9777C173.548 80.1703 173.82 80.2586 174.051 80.0901C174.243 79.9616 174.339 79.6165 174.163 79.4158Z" fill="#3F4553"/>
<path d="M155.435 88.9929C155.379 89.6833 156.385 90.3335 157.678 90.4459C158.979 90.5583 160.081 90.0927 160.137 89.4023C160.193 88.712 159.187 88.0617 157.894 87.9493C156.592 87.837 155.491 88.3026 155.435 88.9929Z" fill="#FBAD8B"/>
<path d="M169.764 90.2689C169.708 90.9592 170.714 91.6095 172.007 91.7218C173.309 91.8342 174.41 91.3686 174.466 90.6783C174.522 89.9879 173.516 89.3377 172.223 89.2253C170.922 89.1129 169.82 89.5785 169.764 90.2689Z" fill="#FBAD8B"/>
<path d="M168.024 99.5725C167.872 100.423 167.401 101.194 166.754 101.764C166.635 101.876 166.523 101.965 166.395 102.053C165.573 102.647 164.551 102.936 163.537 102.968C162.052 103.024 160.536 102.511 159.466 101.475C159.051 101.074 158.707 100.6 158.468 100.078C158.069 99.2514 157.909 98.3122 158.069 97.4131C158.157 96.9074 158.404 96.3696 158.883 96.2411C159.194 96.1609 159.498 96.2652 159.785 96.4338C159.937 96.5221 160.081 96.6264 160.216 96.7228C161.326 97.5496 162.523 98.3042 163.865 98.6253C164.807 98.8501 165.836 98.834 166.746 98.4888C167.05 98.3684 167.505 97.967 167.84 98.1758C167.848 98.1838 167.848 98.1838 167.856 98.1838C168.207 98.4567 168.096 99.2113 168.024 99.5725Z" fill="#4E5567"/>
<path d="M167.832 98.1916C167.768 98.4244 167.648 98.6572 167.496 98.8499C167.161 99.2673 166.658 99.5402 166.147 99.7088C164.423 100.279 162.467 99.8292 160.974 98.7937C160.495 98.4565 160.04 98.0471 159.825 97.4932C159.697 97.1641 159.673 96.7868 159.777 96.4496C159.928 96.5379 160.072 96.6423 160.208 96.7386C161.317 97.5655 162.515 98.3201 163.856 98.6411C164.798 98.8659 165.828 98.8499 166.738 98.5047C167.041 98.3843 167.496 97.9829 167.832 98.1916Z" fill="white"/>
<path d="M166.755 101.772C166.635 101.885 166.524 101.973 166.396 102.061C165.574 102.655 164.552 102.944 163.538 102.976C162.053 103.033 160.536 102.519 159.467 101.483C159.052 101.082 158.708 100.608 158.469 100.087C159.618 99.9662 160.792 99.9501 161.949 100.038C163.33 100.143 164.735 100.408 165.917 101.122C166.204 101.315 166.492 101.523 166.755 101.772Z" fill="#3F4553"/>
<path d="M167.688 71.1873C164.064 71.9338 160.065 70.3363 157.941 67.2859C157.678 68.209 156.911 68.9717 155.985 69.2366C155.067 69.5015 154.013 69.2526 153.303 68.6024C153.159 71.5726 152.385 74.5668 150.685 76.9911C148.984 79.4235 146.286 81.2297 143.34 81.4625C141.696 81.5909 139.947 81.1976 138.718 80.0817C137.576 79.0382 137.01 77.5049 136.666 75.9957C135.844 72.3593 136.092 68.4418 137.584 65.0221C139.069 61.6024 141.823 58.7125 145.248 57.2675C148.521 55.8788 152.193 55.8467 155.746 55.9671C159.402 56.0955 163.09 56.3845 166.563 57.5485C169.381 58.4877 172.055 60.0451 174.027 62.3008C174.41 62.7423 175.081 63.3604 175.073 63.9785C175.065 64.5806 174.642 65.3673 174.378 65.8971C173.763 67.1414 172.885 68.2412 171.832 69.1322C170.65 70.1517 169.213 70.8742 167.688 71.1873Z" fill="#405050"/>
<path d="M141.465 81.6552C140.227 80.1942 138.431 79.0864 136.467 79.2469C134.527 79.4075 133.003 80.732 132.508 82.6185C132.18 83.8868 132.284 85.2274 132.524 86.5198C132.771 87.8765 133.154 89.2171 133.801 90.4292C135.022 92.7171 137.569 94.8042 140.307 93.8971C143.955 92.685 144.203 88.1655 143.293 85.0107C142.941 83.8387 142.303 82.6506 141.465 81.6552Z" fill="#FDBCA0"/>
<path d="M136.643 82.5139C136.308 82.3373 136.02 82.843 136.347 83.0197C138.679 84.2318 139.98 86.8407 139.509 89.4497C139.445 89.819 140.004 89.9715 140.068 89.6022C140.586 86.7524 139.221 83.8545 136.643 82.5139Z" fill="#F0A38B"/>
<path d="M139.309 85.5405C138.319 85.1311 137.225 85.0428 136.188 85.2596C136.036 85.2917 135.948 85.4763 135.988 85.6208C136.036 85.7814 136.188 85.8536 136.347 85.8215C137.289 85.6288 138.271 85.7332 139.165 86.1025C139.309 86.1586 139.485 86.0382 139.525 85.9018C139.557 85.7332 139.453 85.6047 139.309 85.5405Z" fill="#F0A38B"/>
<path d="M135.733 108.475L129.235 111.237L123.447 127.741L133.314 122.403L136.659 125.63L135.733 108.475Z" fill="#536969"/>
<path d="M110.475 126.362C110.475 126.362 84.865 171.693 90.4052 179.456C95.9454 187.218 145.416 194.78 145.416 194.78L147.452 184.714C147.452 184.714 111.433 174.824 110.69 171.99L111.6 160.631C111.592 160.631 114.562 130.416 110.475 126.362Z" fill="#FDBCA0"/>
<path d="M110.682 171.989L111.592 160.63C111.592 160.63 114.562 130.414 110.475 126.352C110.475 126.352 84.865 171.684 90.4052 179.446C92.1934 181.951 98.5798 184.439 106.395 186.663L108.814 185.82L113.572 173.867C111.872 173.105 110.802 172.454 110.682 171.989Z" fill="#405050"/>
<path d="M119.359 175.192C115.392 178.732 112.758 183.757 112.087 189.047C111.041 189.063 110.075 188.63 109.213 188.036C108.199 188.726 106.858 188.573 105.653 188.389C105.174 188.317 104.639 188.212 104.359 187.819C104.176 187.562 104.144 187.233 104.112 186.92C103.992 185.684 103.872 184.423 104.168 183.219C104.455 182.047 105.118 181.003 105.772 179.984C106.906 178.226 108.04 176.46 109.173 174.702C109.564 174.1 109.955 173.482 110.522 173.048C111.089 172.607 111.855 172.366 112.526 172.607C112.941 172.759 113.276 173.072 113.668 173.281C114.322 173.626 115.089 173.65 115.823 173.626C116.557 173.602 117.308 173.53 118.018 173.723C118.729 173.915 119.208 174.461 119.359 175.192Z" fill="#536969"/>
<path d="M111.68 133.859C111.576 143.676 111.201 153.494 110.546 163.295C110.363 166.081 110.147 168.867 109.916 171.652C109.852 172.399 111.017 172.375 111.081 171.628C111.896 161.842 112.43 152.033 112.694 142.215C112.766 139.422 112.814 136.628 112.846 133.842C112.853 133.08 111.688 133.104 111.68 133.859Z" fill="#A1B8B8"/>
<path d="M145.408 194.771C145.408 194.771 165.095 202.831 165.989 201.185C166.883 199.548 157.551 196.433 157.551 196.433C157.551 196.433 170.635 199.098 170.978 197.749C171.321 196.409 158.732 193.053 158.732 193.053C158.732 193.053 173.764 195.815 173.948 194.241C174.131 192.668 160.688 189.714 160.688 189.714C160.688 189.714 173.317 190.436 173.405 189.288C173.557 187.225 147.444 184.705 147.444 184.705L145.408 194.771Z" fill="#FDBCA0"/>
<path d="M149.32 184.905C149.32 184.905 159.362 181.245 160.376 182.039C161.39 182.834 155.946 186.84 155.946 186.84L149.32 184.905Z" fill="#FDBCA0"/>
<path d="M119.695 174.141H67.7094C67.1585 174.141 66.8312 174.59 66.9829 175.144L76.0277 208.193C76.1794 208.747 76.7462 209.197 77.297 209.197H129.283C129.833 209.197 130.161 208.747 130.009 208.193L120.964 175.144C120.821 174.59 120.246 174.141 119.695 174.141Z" fill="#E7DFC2"/>
<path d="M126.105 208.795L118.425 180.747C118.297 180.274 117.81 179.896 117.347 179.896H73.2331C72.7621 179.896 72.4907 180.274 72.6184 180.747L80.2981 208.795C80.2901 208.779 80.346 208.98 80.4098 209.189H126.225L126.105 208.795Z" fill="#F7F4E3"/>
<path d="M71.4848 176.621C71.4848 177.303 70.934 177.849 70.2634 177.849C69.5848 177.849 69.042 177.295 69.042 176.621C69.042 175.947 69.5928 175.393 70.2634 175.393C70.934 175.393 71.4848 175.947 71.4848 176.621Z" fill="#405050"/>
<path d="M70.8309 176.621C70.8309 176.934 70.5754 177.191 70.2641 177.191C69.9527 177.191 69.6973 176.934 69.6973 176.621C69.6973 176.308 69.9527 176.051 70.2641 176.051C70.5754 176.051 70.8309 176.308 70.8309 176.621Z" fill="#576E6E"/>
<path d="M116.374 180.282H72.26C71.789 180.282 71.5176 180.659 71.6454 181.133L79.325 209.181C79.3171 209.149 79.5645 210.032 79.5645 210.032H125.371L125.14 209.181L117.46 181.133C117.324 180.659 116.845 180.282 116.374 180.282Z" fill="#8493FB"/>
<path d="M125.131 209.181L120.19 191.119H74.3752L79.3167 209.181C79.3087 209.149 79.5562 210.032 79.5562 210.032H125.363L125.131 209.181Z" fill="#9DC6FB"/>
<path d="M116.461 214.375H70.6786L79.5797 210.032H125.362L116.461 214.375Z" fill="#8493FB"/>
<path d="M174.842 126.874L268.171 111.277C269.696 111.02 271.085 112.224 271.077 113.798L270.678 173.346C270.67 174.55 269.84 175.577 268.682 175.818L177.636 194.763C175.4 195.293 172.742 193.864 172.742 190.565V129.379C172.75 128.143 173.636 127.083 174.842 126.874Z" fill="#8493FB"/>
<path d="M179.065 126.706L268.171 111.847C269.696 111.59 271.085 112.786 271.077 114.343L270.694 173.442C270.686 174.63 269.856 175.649 268.698 175.89L179.975 194.217C178.426 194.538 176.973 193.35 176.973 191.752V129.194C176.981 127.95 177.859 126.906 179.065 126.706Z" fill="#9DC6FB"/>
<path d="M219.339 157.692L214.174 187.137L242.242 181.341L219.339 157.692Z" fill="#9DC6FB"/>
<path d="M218.173 211.58L205.855 207.374C203.883 206.7 204.003 203.858 206.023 203.352L226.906 198.094C227.274 198.006 227.649 198.014 228.008 198.118L240.134 201.763C242.138 202.365 242.114 205.223 240.102 205.793L219.41 211.612C219.003 211.725 218.572 211.717 218.173 211.58Z" fill="#9DC6FB"/>
<path d="M236.598 154.882C236.359 153.774 235.297 153.06 234.188 153.261L221.048 155.653C220.066 155.83 219.347 156.688 219.331 157.692L218.78 211.789L247.04 203.834L236.598 154.882ZM233.238 196.946C229.278 197.356 225.598 193.045 225.015 187.313C224.432 181.59 227.171 176.613 231.13 176.211C235.09 175.802 238.77 180.113 239.353 185.844C239.935 191.568 237.197 196.537 233.238 196.946Z" fill="#8493FB"/>
<path d="M229.207 57.7497C215.835 57.7497 204.954 46.8082 204.954 33.3621C204.954 19.916 215.835 8.97455 229.207 8.97455C242.578 8.97455 253.459 19.916 253.459 33.3621C253.459 46.8082 242.578 57.7497 229.207 57.7497ZM229.207 15.8862C219.619 15.8862 211.82 23.7291 211.82 33.3702C211.82 43.0112 219.619 50.8541 229.207 50.8541C238.794 50.8541 246.594 43.0112 246.594 33.3702C246.594 23.7291 238.794 15.8862 229.207 15.8862Z" fill="#F5E2D5"/>
<path d="M220.122 39.5189L219.044 37.4879L228.232 32.5831L232.112 17.9811L234.323 18.5751L230.188 34.1485L220.122 39.5189Z" fill="#F5E2D5"/>
</svg>
