<svg width="55" height="55" viewBox="0 0 55 55" fill="none" xmlns="http://www.w3.org/2000/svg">
<rect x="55" y="55" width="55" height="55" rx="27.5" transform="rotate(-180 55 55)" fill="#F2F2F2"/>
<path fill-rule="evenodd" clip-rule="evenodd" d="M22.1232 18.3319C23.689 16.8341 25.8037 16 27.9998 16C30.196 16 32.3106 16.8341 33.8765 18.3319C35.4439 19.8311 36.3332 21.8742 36.3332 24.0145C36.3332 29.6267 38.6351 32.2143 39.776 33.1651C40.3044 33.6055 40.2775 34.2488 40.1684 34.597C40.0605 34.9413 39.6922 35.5362 38.9428 35.5362H32.9947C32.7935 36.0256 32.451 36.6876 31.8979 37.3037C31.0847 38.2097 29.8257 39 27.9998 39C26.1739 39 24.915 38.2097 24.1017 37.3037C23.5486 36.6876 23.2061 36.0256 23.0049 35.5362H17.0569C16.3075 35.5362 15.9391 34.9413 15.8313 34.597C15.7222 34.2488 15.6953 33.6055 16.2237 33.1651C17.3646 32.2143 19.6665 29.6267 19.6665 24.0145C19.6665 21.8742 20.5558 19.8311 22.1232 18.3319ZM27.9998 18C26.3061 18 24.6903 18.644 23.5056 19.7771C22.3224 20.9089 21.6665 22.4341 21.6665 24.0145C21.6665 28.8666 20.0991 31.8405 18.6692 33.5362H23.522C24.1021 33.5362 24.5741 33.9252 24.7306 34.4324C24.8212 34.7262 25.0725 35.3912 25.5901 35.9677C26.0829 36.5168 26.8244 37 27.9998 37C29.1752 37 29.9168 36.5168 30.4096 35.9677C30.9272 35.3912 31.1784 34.7262 31.2691 34.4324C31.4255 33.9252 31.8976 33.5362 32.4777 33.5362H37.3305C35.9006 31.8405 34.3332 28.8666 34.3332 24.0145C34.3332 22.4341 33.6772 20.9089 32.4941 19.7771C31.3094 18.644 29.6935 18 27.9998 18Z" fill="#14142B"/>
</svg>
