<svg width="55" height="55" viewBox="0 0 55 55" fill="none" xmlns="http://www.w3.org/2000/svg">
<rect x="55" y="55" width="55" height="55" rx="27.5" transform="rotate(-180 55 55)" fill="#F2F2F2"/>
<path fill-rule="evenodd" clip-rule="evenodd" d="M27.0001 33.5C24.6273 33.5 22.3789 34.0271 20.8401 34.5021C19.9594 34.774 19.3121 35.5717 19.1537 36.5899L18.9883 37.6537C18.9034 38.1994 18.3922 38.573 17.8464 38.4881C17.3007 38.4032 16.9271 37.892 17.012 37.3463L17.1775 36.2825C17.4363 34.6191 18.5378 33.1197 20.2502 32.5911C21.8945 32.0835 24.3541 31.5 27.0001 31.5C29.6462 31.5 32.1058 32.0835 33.7501 32.5911C35.4625 33.1197 36.564 34.6191 36.8228 36.2825L36.9883 37.3463C37.0731 37.892 36.6996 38.4032 36.1539 38.4881C35.6081 38.573 35.0969 38.1994 35.012 37.6537L34.8466 36.5899C34.6882 35.5717 34.0409 34.774 33.1601 34.5021C31.6214 34.0271 29.373 33.5 27.0001 33.5Z" fill="#14142B"/>
<path fill-rule="evenodd" clip-rule="evenodd" d="M27.0001 19C24.791 19 23.0001 20.7909 23.0001 23C23.0001 25.2091 24.791 27 27.0001 27C29.2093 27 31.0001 25.2091 31.0001 23C31.0001 20.7909 29.2093 19 27.0001 19ZM21.0001 23C21.0001 19.6863 23.6864 17 27.0001 17C30.3139 17 33.0001 19.6863 33.0001 23C33.0001 26.3137 30.3139 29 27.0001 29C23.6864 29 21.0001 26.3137 21.0001 23Z" fill="#14142B"/>
</svg>
